####
#
# OBJ File Generated by Meshlab
#
####
# Object cube.obj
#
# Vertices: 26
# Faces: 19
#
####
mtllib ./cube.obj.mtl

vn 0.000000 -2.000000 0.000000
v 5.498900 0.000000 -5.498900 0.752941 0.752941 0.752941
vn 0.000000 -1.000000 0.000000
v -5.498900 0.000000 -5.498900 0.752941 0.752941 0.752941
vn 0.000000 -1.000000 0.000000
v 5.498900 0.000000 5.498900 0.752941 0.752941 0.752941
vn 0.000000 -2.000000 0.000000
v -5.498900 0.000000 5.498900 0.752941 0.752941 0.752941
vn 2.000000 -2.000000 -0.999999
v 1.499999 0.000000 -1.499999 0.443137 0.372549 0.078431
vn 1.000000 -1.000000 2.000000
v 1.499999 0.000000 1.499999 0.443137 0.372549 0.078431
vn -2.000000 -2.000001 1.000000
v -1.499999 0.000000 1.499999 0.443137 0.372549 0.078431
vn -0.999999 -0.999999 -2.000000
v -1.499999 0.000000 -1.500000 0.443137 0.372549 0.078431
vn 1.000001 0.000001 -2.000000
v 1.500000 2.500000 -1.499998 0.443137 0.372549 0.078431
vn 2.000000 -0.000000 1.000001
v 1.499998 2.500000 1.500000 0.443137 0.372549 0.078431
vn -1.000000 -0.000001 2.000000
v -1.500000 2.500000 1.499999 0.443137 0.372549 0.078431
vn -2.000000 0.000000 -1.000000
v -1.499999 2.500000 -1.499999 0.443137 0.372549 0.078431
vn 0.000000 0.000000 0.000000
v 1.500000 2.500000 -1.499998 0.443137 0.372549 0.078431
vn 0.000000 0.000000 0.000000
v 1.499998 2.500000 1.500000 0.443137 0.372549 0.078431
vn 0.000000 0.000000 0.000000
v -1.500000 2.500000 1.499999 0.443137 0.372549 0.078431
vn 0.000000 0.000000 0.000000
v -1.499999 2.500000 -1.499999 0.443137 0.372549 0.078431
vn 0.598069 1.602890 -0.598068
v 1.500000 2.500000 -1.499998 0.443137 0.372549 0.078431
vn 0.598068 1.602890 0.598069
v 1.499998 2.500000 1.500000 0.443137 0.372549 0.078431
vn -0.598069 1.602890 0.598068
v -1.500000 2.500000 1.499999 0.443137 0.372549 0.078431
vn -0.598068 1.602890 -0.598069
v -1.499999 2.500000 -1.499999 0.443137 0.372549 0.078431
vn 0.000000 3.205780 -0.000000
v -0.000000 3.619356 0.000000 0.443137 0.372549 0.078431
vn 0.000000 2.000000 0.000000
v 1.479100 0.000000 -1.479100 0.443137 0.372549 0.078431
vn 0.000000 1.000000 0.000000
v -1.479100 0.000000 -1.479100 0.443137 0.372549 0.078431
vn 0.000000 1.000000 0.000000
v 1.479100 0.000000 1.479100 0.443137 0.372549 0.078431
vn 0.000000 2.000000 0.000000
v -1.479100 0.000000 1.479100 0.443137 0.372549 0.078431
vn 0.000000 0.000000 0.000000
v -1.499999 2.500000 -1.499999 0.443137 0.372549 0.078431
# 26 vertices, 0 vertices normals


usemtl material_0
vt 0.000000 0.000000
vt 0.000000 0.000000
f 3/1/3 4/1/4 2/1/2 1/2/1

usemtl material_1
f 6/1/6 7/1/7 8/1/8 5/2/5
f 10/1/10 14/1/14 15/1/15 11/2/11
f 9/1/9 10/1/10 6/1/6 5/2/5
f 10/1/10 11/1/11 7/1/7 6/2/6
f 11/1/11 12/1/12 8/1/8 7/2/7
f 5/1/5 8/1/8 12/1/12 9/2/9
f 14/1/14 18/1/18 19/1/19 15/2/15
f 9/1/9 13/1/13 14/1/14 10/2/10
f 11/1/11 15/1/15 16/1/16 12/2/12
vt 0.000000 0.000000
f 12/1/12 26/1/26 13/1/13 9/3/9
f 19/1/19 21/1/21 20/1/20
f 13/1/13 17/1/17 18/1/18 14/2/14
f 15/1/15 19/1/19 20/1/20 16/2/16
f 26/1/26 20/1/20 17/1/17 13/3/13
f 20/1/20 21/1/21 17/1/17
f 18/1/18 21/1/21 19/1/19
f 17/1/17 21/1/21 18/1/18
vt 1.000000 1.000000
f 23/1/23 25/1/25 24/1/24 22/4/22
# 19 faces, 4 coords texture

# End of File
